{"glyphs":{"0":{"ha":1233,"x_min":42,"x_max":1192,"o":"m 617 -17 q 515 -8 565 -17 q 418 18 464 1 q 375 36 396 26 q 333 57 354 46 q 282 90 307 72 q 232 131 257 108 q 186 176 208 151 q 143 231 164 201 q 114 278 128 253 q 89 329 100 303 q 53 441 65 383 q 42 560 42 499 q 58 697 42 631 q 105 824 74 764 q 179 933 136 883 q 211 967 194 951 q 245 999 228 983 q 282 1028 263 1014 q 328 1057 304 1043 q 376 1082 351 1071 q 422 1101 399 1093 q 468 1115 444 1110 q 542 1130 504 1125 q 617 1135 579 1135 l 631 1135 q 913 1053 783 1131 q 1117 844 1042 975 q 1192 560 1192 714 l 1192 550 q 1113 268 1189 397 q 909 63 1038 139 q 628 -17 781 -14 l 617 -17 m 617 424 q 685 442 654 424 q 733 491 715 460 q 751 560 751 522 q 733 628 751 597 q 685 676 715 658 q 617 694 654 694 q 549 676 579 694 q 500 628 518 658 q 482 560 482 597 q 500 491 482 522 q 549 442 518 460 q 617 424 579 424 z "},"1":{"ha":861,"x_min":42,"x_max":819,"o":"m 42 617 l 211 617 q 317 645 268 617 q 394 723 365 674 q 422 829 422 772 l 422 983 q 419 997 422 990 q 411 1009 417 1004 q 397 1014 406 1014 q 383 1009 389 1014 q 375 997 378 1004 q 372 983 372 990 l 372 829 q 327 712 372 757 q 211 667 282 667 l 42 667 l 42 1088 l 383 1088 q 410 1094 400 1088 q 419 1118 419 1101 l 419 1125 l 489 1125 l 489 829 q 517 724 489 772 q 594 646 546 675 q 701 617 643 617 l 819 617 l 819 0 l 42 0 l 42 617 z "},"2":{"ha":900,"x_min":42,"x_max":858,"o":"m 42 357 l 456 357 q 632 405 550 357 q 762 534 714 453 q 810 711 810 615 q 762 887 810 806 q 632 1016 714 968 q 456 1064 550 1064 q 278 1016 361 1064 q 145 887 194 968 q 96 711 96 806 l 96 622 l 42 622 l 42 1111 l 858 1111 l 858 300 l 218 300 q 135 264 171 300 q 99 181 99 228 q 135 97 99 133 q 218 61 171 61 l 858 61 l 858 0 l 42 0 l 42 357 z "},"3":{"ha":2151,"x_min":42,"x_max":2110,"o":"m 42 328 l 1083 328 l 1083 96 q 1083 96 1083 96 q 1083 96 1083 96 q 1083 96 1083 96 l 1111 96 q 1111 96 1111 96 q 1111 96 1111 96 q 1111 96 1111 96 l 1111 356 q 1111 356 1111 356 q 1111 356 1111 356 q 1111 356 1111 356 l 42 356 l 42 742 l 1111 742 q 1111 742 1111 742 q 1111 742 1111 742 l 1111 988 q 1111 988 1111 988 q 1111 988 1111 988 l 1083 988 q 1083 988 1083 988 q 1083 988 1083 988 l 1083 769 l 42 769 l 42 1111 l 2110 1111 l 2110 574 l 1083 574 l 1083 546 l 2110 546 l 2110 0 l 42 0 l 42 328 z "},"4":{"ha":665,"x_min":42,"x_max":624,"o":"m 328 207 l 42 207 l 42 1026 l 369 1125 l 493 1125 l 493 694 l 624 694 l 624 207 l 493 207 l 493 0 l 328 0 l 328 207 m 263 694 q 335 714 301 694 q 388 767 368 733 q 407 840 407 801 q 388 913 407 879 q 335 965 368 946 q 263 985 301 985 q 189 965 222 985 q 136 913 156 946 q 117 840 117 881 q 136 767 117 800 q 189 714 156 733 q 263 694 222 694 z "},"5":{"ha":438,"x_min":42,"x_max":396,"o":"m 42 553 l 365 553 q 365 553 365 553 q 365 553 365 553 l 365 581 q 365 581 365 581 q 365 581 365 581 l 42 581 l 42 1111 l 271 1111 q 296 1102 285 1111 q 307 1076 307 1093 l 307 1029 q 296 1001 307 1013 q 269 990 285 990 l 269 990 q 240 1001 250 990 q 229 1029 229 1011 l 229 1089 q 229 1089 229 1089 q 229 1089 229 1089 l 85 1089 q 85 1089 85 1089 q 85 1089 85 1089 l 85 811 l 125 811 q 171 935 136 897 q 271 974 206 974 q 371 924 346 974 q 396 789 396 875 l 396 331 q 373 147 396 219 q 293 38 350 75 q 136 0 236 0 l 42 0 l 42 553 z "},"6":{"ha":585,"x_min":42,"x_max":543,"o":"m 488 1111 q 244 1022 344 1111 q 92 786 143 932 q 42 472 42 640 q 94 194 42 299 q 229 44 147 89 q 406 0 311 0 l 543 0 q 543 0 543 0 q 543 0 543 0 q 543 0 543 0 l 543 281 q 543 281 543 281 q 543 281 543 281 q 543 281 543 281 l 175 281 q 149 292 160 281 q 138 319 138 303 l 138 319 q 149 344 138 333 q 175 354 160 354 l 540 354 l 540 1111 l 488 1111 m 419 69 q 371 91 392 69 q 350 140 350 113 l 350 140 q 371 190 350 168 q 419 211 392 211 l 419 211 q 468 190 447 211 q 489 140 489 168 l 489 140 q 468 91 489 113 q 419 69 447 69 l 419 69 z "},"7":{"ha":772,"x_min":42,"x_max":731,"o":"m 661 438 l 667 438 q 636 310 667 365 q 548 224 606 254 q 411 193 490 193 l 390 193 q 390 193 390 193 q 390 193 390 193 q 390 193 390 193 l 390 717 q 390 717 390 717 q 390 717 390 717 q 390 717 390 717 l 411 717 q 544 683 488 717 q 633 593 601 650 q 667 467 664 536 l 661 467 l 661 940 q 631 1012 661 982 q 558 1042 601 1042 q 488 1012 518 1042 q 457 940 457 982 l 457 883 q 429 782 457 829 q 353 707 401 735 q 250 679 306 679 l 250 679 q 145 707 193 679 q 69 783 97 735 q 42 888 42 831 l 42 1111 l 731 1111 l 731 0 l 661 0 l 661 438 z "},"8":{"ha":831,"x_min":42,"x_max":789,"o":"m 42 339 l 292 339 l 292 367 l 42 367 l 42 1111 l 789 1111 l 789 367 l 539 367 l 539 339 l 789 339 l 789 0 l 42 0 l 42 339 m 208 57 q 266 72 240 57 q 307 113 292 88 q 322 169 322 139 q 307 226 322 200 q 266 267 292 251 q 208 282 240 282 q 152 267 178 282 q 112 226 126 251 q 97 169 97 200 q 112 113 97 139 q 152 72 126 88 q 208 57 178 57 m 415 433 q 567 474 497 433 q 678 585 638 515 q 719 738 719 656 q 678 890 719 819 q 567 1001 638 960 q 415 1042 497 1042 q 263 1001 333 1042 q 152 890 193 960 q 111 738 111 819 q 152 585 111 656 q 263 474 193 515 q 415 433 333 433 z "},"9":{"ha":1600,"x_min":42,"x_max":1558,"o":"m 42 535 l 772 535 q 925 559 857 535 q 1033 633 993 583 q 1074 754 1074 682 l 1074 1042 l 1046 1042 l 1046 761 q 1015 662 1046 707 q 923 590 985 617 q 772 563 861 563 l 42 563 l 42 1111 l 1558 1111 l 1558 740 q 1392 203 1558 406 q 844 0 1225 0 l 42 0 l 42 535 m 892 872 q 933 883 914 872 q 965 914 953 894 q 976 957 976 933 q 965 999 976 979 q 933 1030 953 1018 q 892 1042 914 1042 q 832 1017 857 1042 q 807 957 807 992 q 818 914 807 933 q 849 883 829 894 q 892 872 868 872 z "}," ":{"ha":417,"x_min":0,"x_max":0,"o":""}," ":{"ha":417,"x_min":0,"x_max":0,"o":""},"A":{"ha":1233,"x_min":35,"x_max":1199,"o":"m 500 1111 l 733 1111 l 1199 0 l 963 0 l 881 210 l 353 210 l 271 0 l 35 0 l 500 1111 m 804 406 l 624 865 l 611 865 l 431 406 l 804 406 z "},"Æ":{"ha":1681,"x_min":42,"x_max":1599,"o":"m 688 1111 l 1599 1111 l 1599 899 l 1047 899 l 1047 660 l 1546 660 l 1546 461 l 1047 461 l 1047 213 l 1599 213 l 1599 0 l 825 0 l 825 229 l 429 229 l 292 0 l 42 0 l 688 1111 m 825 425 l 825 865 l 813 865 l 547 425 l 825 425 z "},"B":{"ha":1061,"x_min":107,"x_max":1000,"o":"m 107 1111 l 631 1111 q 801 1076 729 1111 q 910 977 872 1040 q 949 833 949 914 q 920 673 949 747 q 825 563 892 599 l 815 606 q 956 506 913 576 q 1000 340 1000 436 q 913 94 1000 188 q 664 0 826 0 l 107 0 l 107 1111 m 628 196 q 760 236 714 196 q 806 344 806 276 q 764 453 806 413 q 635 494 722 494 l 329 496 l 329 196 l 628 196 m 597 671 q 714 699 672 671 q 756 794 756 728 q 611 915 756 915 l 329 915 l 329 671 l 597 671 z "},"C":{"ha":1232,"x_min":67,"x_max":1171,"o":"m 640 -12 q 342 60 472 -12 q 139 263 211 133 q 67 556 67 392 q 139 848 67 718 q 342 1051 211 978 q 640 1125 472 1125 q 992 1016 853 1125 q 1167 708 1131 907 l 954 708 q 840 867 917 810 q 640 925 763 925 q 444 875 526 925 q 321 740 363 825 q 279 556 279 656 q 321 370 279 454 q 444 235 363 286 q 640 185 526 185 q 846 247 767 185 q 960 414 925 308 l 1171 414 q 1081 188 1151 285 q 896 40 1010 92 q 640 -12 782 -12 z "},"D":{"ha":1139,"x_min":97,"x_max":1072,"o":"m 97 1111 l 536 1111 q 935 970 797 1111 q 1072 576 1072 829 q 936 148 1072 296 q 536 0 800 0 l 97 0 l 97 1111 m 542 210 q 778 301 689 210 q 867 581 867 392 q 778 824 867 746 q 542 903 690 903 l 319 903 l 319 210 l 542 210 z "},"E":{"ha":1022,"x_min":97,"x_max":940,"o":"m 97 1111 l 940 1111 l 940 899 l 319 899 l 319 660 l 888 660 l 888 461 l 319 461 l 319 213 l 940 213 l 940 0 l 97 0 l 97 1111 z "},"F":{"ha":989,"x_min":97,"x_max":940,"o":"m 97 1111 l 940 1111 l 940 899 l 319 899 l 319 674 l 832 674 l 832 465 l 319 465 l 319 0 l 97 0 l 97 1111 z "},"G":{"ha":1243,"x_min":67,"x_max":1168,"o":"m 639 -15 q 341 58 471 -15 q 139 262 211 132 q 67 556 67 392 q 139 848 67 718 q 341 1051 211 978 q 639 1125 471 1125 q 984 1020 849 1125 q 1147 725 1119 915 l 932 725 q 830 874 904 818 q 639 929 756 929 q 440 878 525 929 q 311 741 356 826 q 267 556 267 656 q 311 369 267 456 q 440 231 356 283 q 639 179 525 179 q 801 215 725 179 q 925 315 878 250 q 976 465 972 381 l 536 465 l 536 650 l 1168 650 l 1168 0 l 974 0 l 1119 263 l 1151 208 l 1019 208 l 1097 243 q 909 54 1031 124 q 639 -15 788 -15 z "},"H":{"ha":1146,"x_min":97,"x_max":1049,"o":"m 97 1111 l 319 1111 l 319 658 l 826 658 l 826 1113 l 1049 1113 l 1049 1 l 826 1 l 826 446 l 319 446 l 319 0 l 97 0 l 97 1111 z "},"I":{"ha":417,"x_min":97,"x_max":319,"o":"m 97 1111 l 319 1111 l 319 0 l 97 0 l 97 1111 z "},"Ĳ":{"ha":1290,"x_min":97,"x_max":1190,"o":"m 97 1111 l 319 1111 l 319 0 l 97 0 l 97 1111 m 810 -14 q 601 31 686 -14 q 475 150 517 75 q 433 318 433 225 l 433 433 l 653 433 l 653 356 q 811 199 653 199 q 931 239 894 199 q 968 356 968 279 l 968 1111 l 1190 1111 l 1190 318 q 1147 150 1190 225 q 1019 31 1104 75 q 810 -14 933 -14 z "},"J":{"ha":901,"x_min":44,"x_max":801,"o":"m 421 -14 q 213 31 297 -14 q 86 150 128 75 q 44 318 44 225 l 44 433 l 264 433 l 264 356 q 422 199 264 199 q 542 239 506 199 q 579 356 579 279 l 579 1111 l 801 1111 l 801 318 q 758 150 801 225 q 630 31 715 75 q 421 -14 544 -14 z "},"K":{"ha":1188,"x_min":111,"x_max":1161,"o":"m 111 1111 l 333 1111 l 333 576 l 800 1111 l 1078 1111 l 638 607 l 1161 0 l 882 0 l 493 442 l 335 260 l 333 260 l 333 0 l 111 0 l 111 1111 z "},"L":{"ha":1010,"x_min":107,"x_max":950,"o":"m 107 1111 l 329 1111 l 329 213 l 950 213 l 950 0 l 107 0 l 107 1111 z "},"M":{"ha":1372,"x_min":97,"x_max":1275,"o":"m 97 1111 l 379 1111 l 679 281 l 693 281 l 993 1111 l 1275 1111 l 1275 0 l 1053 0 l 1053 688 l 1039 688 l 786 0 l 586 0 l 333 688 l 319 688 l 319 0 l 97 0 l 97 1111 z "},"N":{"ha":1188,"x_min":97,"x_max":1090,"o":"m 97 1111 l 349 1111 l 854 346 l 868 346 l 868 1111 l 1090 1111 l 1090 0 l 831 0 l 333 735 l 319 735 l 319 0 l 97 0 l 97 1111 z "},"O":{"ha":1258,"x_min":56,"x_max":1203,"o":"m 632 -14 q 333 60 464 -14 q 128 263 201 133 q 56 556 56 393 q 128 848 56 718 q 333 1051 201 978 q 632 1125 464 1125 q 928 1051 799 1125 q 1131 848 1058 978 q 1203 556 1203 718 q 1131 263 1203 393 q 928 60 1058 133 q 632 -14 799 -14 m 632 183 q 826 234 744 183 q 951 370 908 285 q 993 556 993 456 q 951 740 993 656 q 826 874 908 824 q 632 925 744 925 q 435 874 518 925 q 308 740 351 824 q 265 556 265 656 q 308 370 265 456 q 435 234 351 285 q 632 183 518 183 z "},"Œ":{"ha":1910,"x_min":67,"x_max":1828,"o":"m 643 -14 q 344 60 475 -14 q 140 263 213 133 q 67 556 67 393 q 140 848 67 718 q 344 1051 213 978 q 643 1125 475 1125 q 836 1096 746 1125 q 999 1013 926 1067 l 999 1111 l 1828 1111 l 1828 899 l 1207 899 l 1207 660 l 1775 660 l 1775 461 l 1207 461 l 1207 460 l 1207 213 l 1828 213 l 1828 0 l 999 0 l 999 99 q 837 15 928 44 q 643 -14 746 -14 m 643 183 q 838 234 756 183 q 962 370 919 285 q 1004 556 1004 456 q 962 740 1004 656 q 838 874 919 824 q 643 925 756 925 q 446 874 529 925 q 319 740 363 824 q 276 556 276 656 q 319 370 276 456 q 446 234 363 285 q 643 183 529 183 z "},"P":{"ha":1029,"x_min":107,"x_max":969,"o":"m 107 1111 l 636 1111 q 879 1028 789 1111 q 969 797 969 946 q 928 613 969 692 q 810 490 886 533 q 636 446 735 446 l 329 446 l 329 0 l 107 0 l 107 1111 m 606 642 q 723 681 676 642 q 769 785 769 719 q 727 883 769 851 q 619 915 685 915 l 329 915 l 329 642 l 606 642 z "},"Þ":{"ha":976,"x_min":107,"x_max":917,"o":"m 107 1111 l 329 1111 l 329 961 l 583 961 q 826 878 736 961 q 917 647 917 796 q 875 463 917 542 q 758 340 833 383 q 583 296 682 296 l 329 296 l 329 0 l 107 0 l 107 1111 m 553 492 q 670 531 624 492 q 717 635 717 569 q 674 733 717 701 q 567 765 632 765 l 329 765 l 329 492 l 553 492 z "},"Q":{"ha":1278,"x_min":67,"x_max":1211,"o":"m 847 19 q 642 -14 754 -14 q 343 60 474 -14 q 140 263 213 133 q 67 556 67 392 q 140 848 67 718 q 343 1051 213 978 q 642 1125 474 1125 q 938 1051 808 1125 q 1139 848 1067 978 q 1211 556 1211 718 q 1169 326 1211 432 q 1049 143 1126 219 l 1188 -56 l 994 -190 l 847 19 m 642 181 q 729 189 688 181 l 600 374 l 792 507 l 928 314 q 985 426 965 364 q 1006 556 1006 488 q 963 740 1006 656 q 837 876 919 825 q 642 928 754 928 q 444 876 528 928 q 316 740 360 825 q 272 556 272 656 q 316 369 272 456 q 444 232 360 283 q 642 181 528 181 z "},"R":{"ha":1146,"x_min":97,"x_max":1104,"o":"m 97 1111 l 682 1111 q 856 1069 781 1111 q 974 950 932 1026 q 1015 775 1015 874 q 947 544 1015 638 q 760 426 878 451 l 764 489 l 1104 0 l 826 0 l 536 418 l 319 418 l 319 0 l 97 0 l 97 1111 m 651 604 q 768 650 721 604 q 815 763 815 696 q 772 873 815 831 q 665 915 728 915 l 319 915 l 319 604 l 651 604 z "},"S":{"ha":1097,"x_min":47,"x_max":1036,"o":"m 557 -12 q 188 88 329 -12 q 49 392 47 188 l 269 392 q 350 242 268 296 q 557 188 432 188 q 815 314 815 188 q 789 386 815 358 q 706 431 763 414 q 550 461 650 449 q 202 569 325 490 q 79 797 79 649 q 140 976 79 903 q 309 1088 201 1050 q 557 1125 417 1125 q 832 1069 728 1125 q 982 930 936 1013 q 1035 761 1028 847 l 811 761 q 738 883 804 839 q 557 926 672 926 q 370 894 436 926 q 304 797 304 861 q 331 728 304 756 q 416 684 358 701 q 574 651 474 667 q 919 549 801 618 q 1036 338 1036 479 q 982 167 1036 247 q 819 37 928 86 q 557 -12 711 -12 z "},"T":{"ha":1090,"x_min":42,"x_max":1049,"o":"m 433 899 l 42 899 l 42 1111 l 1049 1111 l 1049 899 l 656 899 l 656 0 l 433 0 l 433 899 z "},"U":{"ha":1075,"x_min":69,"x_max":1006,"o":"m 547 -14 q 306 40 414 -14 q 133 204 197 94 q 69 472 69 314 l 69 1111 l 278 1111 l 278 476 q 352 259 278 333 q 547 185 426 185 q 674 217 617 185 q 765 316 732 250 q 799 476 799 382 l 799 1111 l 1006 1111 l 1006 472 q 943 204 1006 314 q 776 40 881 94 q 547 -14 672 -14 z "},"V":{"ha":1300,"x_min":28,"x_max":1272,"o":"m 28 1111 l 278 1111 l 643 278 l 657 278 l 1022 1111 l 1272 1111 l 785 0 l 515 0 l 28 1111 z "},"W":{"ha":1874,"x_min":53,"x_max":1821,"o":"m 53 1111 l 303 1111 l 597 294 l 611 294 l 825 1111 l 1049 1111 l 1263 294 l 1276 294 l 1571 1111 l 1821 1111 l 1403 0 l 1147 0 l 943 742 l 929 742 l 726 0 l 471 0 l 53 1111 z "},"X":{"ha":1243,"x_min":53,"x_max":1190,"o":"m 464 575 l 81 1111 l 342 1111 l 629 728 l 643 728 l 929 1111 l 1190 1111 l 767 536 l 1163 0 l 901 0 l 615 382 l 601 382 l 314 0 l 53 0 l 464 575 z "},"Y":{"ha":1203,"x_min":28,"x_max":1175,"o":"m 490 468 l 28 1111 l 296 1111 l 596 693 l 610 693 l 907 1111 l 1175 1111 l 713 468 l 713 0 l 490 0 l 490 468 z "},"Z":{"ha":1104,"x_min":76,"x_max":1028,"o":"m 76 213 l 690 885 l 690 899 l 119 899 l 119 1111 l 1001 1111 l 1001 885 l 407 226 l 407 213 l 1028 213 l 1028 0 l 76 0 l 76 213 z "},"a":{"ha":1113,"x_min":28,"x_max":1092,"o":"m 304 -14 q 165 23 228 -14 q 65 123 101 60 q 28 261 28 186 l 28 261 q 64 401 28 339 q 163 500 100 464 q 304 536 225 536 l 558 536 q 607 549 585 536 q 642 585 629 563 q 656 635 656 607 q 642 683 656 661 q 607 719 629 706 q 558 732 585 732 l 224 732 l 224 1111 l 439 1111 q 519 1090 481 1111 q 582 1026 558 1069 l 1068 151 q 1083 74 1092 108 q 1048 20 1075 40 q 993 0 1021 0 l 811 0 q 744 28 772 0 q 715 96 715 57 l 715 185 l 715 218 q 715 306 715 278 q 715 392 715 335 q 699 430 715 414 q 661 446 683 446 q 622 430 639 446 q 606 392 606 414 l 606 261 q 569 123 606 186 q 469 23 532 60 q 331 -14 406 -14 l 304 -14 m 324 176 q 367 188 347 176 q 399 220 388 200 q 411 264 411 240 q 399 308 411 288 q 367 341 388 329 q 324 353 347 353 q 279 341 300 353 q 247 308 258 329 q 235 264 235 288 q 247 220 235 240 q 279 188 258 200 q 324 176 300 176 z "},"æ":{"ha":1561,"x_min":28,"x_max":1533,"o":"m 304 -14 q 165 23 228 -14 q 65 123 101 60 q 28 261 28 186 l 28 261 q 65 406 28 343 q 165 502 101 468 q 304 536 228 536 l 586 536 q 635 549 613 536 q 670 585 657 563 q 683 635 683 607 q 670 683 683 661 q 635 719 657 706 q 586 732 613 732 l 224 732 l 224 1111 l 526 1111 q 623 1075 583 1111 q 688 969 663 1039 l 758 779 q 801 699 776 732 q 867 665 826 665 q 932 691 908 665 q 956 779 956 717 l 956 850 q 992 988 956 925 q 1092 1088 1029 1051 q 1231 1125 1156 1125 l 1257 1125 q 1395 1089 1332 1125 q 1496 990 1458 1053 q 1533 850 1533 928 l 1533 850 q 1497 710 1533 772 q 1399 611 1461 647 q 1257 575 1336 575 l 1003 575 q 934 547 963 575 q 906 476 906 518 q 935 408 906 438 q 1003 379 964 379 l 1476 379 l 1476 0 l 933 0 q 824 29 874 0 q 744 108 774 58 q 715 218 715 158 l 715 392 q 699 430 715 414 q 661 446 683 446 q 622 430 639 446 q 606 392 606 414 l 606 261 q 569 123 606 186 q 469 23 532 60 q 331 -14 406 -14 l 304 -14 m 324 176 q 382 192 356 176 q 424 233 408 207 q 439 292 439 260 q 424 350 439 324 q 382 392 408 376 q 324 408 356 408 q 265 392 292 408 q 223 350 239 376 q 207 292 207 324 q 223 233 207 260 q 265 192 239 207 q 324 176 292 176 m 1238 763 q 1282 774 1261 763 q 1315 807 1303 786 q 1326 851 1326 828 q 1315 895 1326 875 q 1282 927 1303 915 q 1238 939 1261 939 q 1194 927 1214 939 q 1162 895 1174 915 q 1150 851 1150 875 q 1162 807 1150 828 q 1194 774 1174 786 q 1238 763 1214 763 z "},"b":{"ha":1761,"x_min":28,"x_max":1733,"o":"m 28 1111 l 1733 1111 q 1733 1111 1733 1111 q 1733 1111 1733 1111 q 1733 1111 1733 1111 l 1733 347 q 1733 347 1733 347 q 1733 347 1733 347 q 1733 347 1733 347 l 139 347 l 139 319 l 1733 319 q 1733 319 1733 319 q 1733 319 1733 319 q 1733 319 1733 319 l 1733 0 q 1733 0 1733 0 q 1733 0 1733 0 q 1733 0 1733 0 l 28 0 l 28 1111 m 269 42 q 328 57 301 42 q 372 99 356 72 q 388 158 388 126 q 372 217 388 190 q 328 260 356 244 q 269 276 301 276 q 210 260 238 276 q 168 217 183 244 q 153 158 153 190 q 169 100 153 126 q 211 58 185 74 q 269 42 238 42 m 1538 760 q 1647 805 1601 760 q 1692 914 1692 850 q 1647 1024 1692 978 q 1538 1069 1601 1069 q 1428 1024 1474 1069 q 1382 914 1382 979 q 1428 805 1382 850 q 1538 760 1474 760 z "},"c":{"ha":1163,"x_min":28,"x_max":1135,"o":"m 28 1111 l 1135 1111 l 1135 592 l 1065 592 q 990 819 1056 715 q 818 983 925 922 q 583 1043 711 1043 q 340 978 451 1043 q 163 801 228 913 q 97 557 97 689 q 163 314 97 425 q 340 138 228 203 q 583 74 451 74 q 823 137 714 74 q 996 303 932 200 q 1065 522 1060 407 l 1135 522 l 1135 0 l 28 0 l 28 1111 z "},"d":{"ha":1289,"x_min":28,"x_max":1261,"o":"m 28 521 l 154 521 l 154 590 l 28 590 l 28 1111 l 708 1111 q 986 1037 860 1111 q 1187 835 1113 963 q 1261 558 1261 708 l 1261 558 q 1187 280 1261 408 q 985 76 1113 151 q 708 0 858 0 l 28 0 l 28 521 m 708 74 q 951 139 840 74 q 1127 315 1063 204 q 1192 558 1192 426 q 1127 801 1192 690 q 951 978 1063 913 q 708 1043 840 1043 q 465 978 576 1043 q 288 801 353 913 q 222 557 222 689 q 288 314 222 425 q 465 138 353 203 q 708 74 576 74 z "},"e":{"ha":943,"x_min":28,"x_max":915,"o":"m 236 0 q 133 28 181 0 q 56 105 85 57 q 28 208 28 153 l 28 431 q 56 535 28 488 q 131 611 83 583 q 236 639 179 639 l 807 639 q 817 643 814 639 q 821 653 821 647 l 821 653 q 817 663 821 660 q 807 667 814 667 l 244 667 q 137 711 181 667 q 93 818 93 756 l 93 960 q 137 1067 93 1024 q 244 1111 181 1111 l 889 1111 l 889 1072 q 867 1020 889 1042 q 814 999 844 999 l 760 999 q 708 1020 729 999 q 686 1072 686 1042 l 686 1083 l 658 1083 l 658 992 l 756 992 q 868 944 821 992 q 915 832 915 897 l 915 394 q 890 304 915 346 q 824 238 865 263 q 733 213 782 213 l 658 213 l 658 28 l 686 28 l 686 125 q 708 178 686 156 q 760 200 729 200 l 832 200 q 885 178 863 200 q 907 125 907 156 l 907 0 l 236 0 z "},"f":{"ha":911,"x_min":28,"x_max":883,"o":"m 28 1111 q 28 1111 28 1111 q 28 1111 28 1111 l 883 1111 q 883 1111 883 1111 q 883 1111 883 1111 l 883 560 q 860 478 883 506 q 796 450 838 450 q 729 476 767 450 q 649 546 692 501 q 588 614 618 581 l 281 983 q 232 1026 258 1010 q 174 1042 206 1042 l 174 1042 q 114 1019 131 1042 q 97 953 97 997 l 97 589 q 108 560 97 571 q 138 550 118 550 l 138 550 q 160 554 151 550 q 176 565 169 558 l 342 729 q 403 764 376 764 q 427 756 418 764 q 436 732 436 749 l 436 189 q 417 124 436 146 q 365 103 399 103 q 321 119 340 103 q 286 168 301 136 l 144 475 q 115 496 132 501 q 106 483 107 493 q 108 464 104 474 l 319 0 l 28 0 l 28 1111 z "},"g":{"ha":1242,"x_min":28,"x_max":1214,"o":"m 590 -14 q 313 42 440 -14 q 107 223 186 97 q 28 550 28 349 l 28 550 q 117 878 28 753 q 351 1058 207 1003 q 672 1113 496 1113 l 842 1113 l 842 400 l 588 400 q 458 357 511 400 q 404 224 404 314 l 404 224 q 428 130 404 174 q 494 60 451 86 q 589 35 536 35 l 589 35 q 758 94 686 35 q 829 293 829 154 l 829 329 l 711 329 q 568 89 656 233 q 568 89 568 89 q 568 89 568 89 q 568 89 568 89 l 568 361 l 896 361 q 896 361 896 361 q 896 361 896 361 q 896 361 896 361 l 1214 0 q 1214 0 1214 0 q 1214 0 1214 0 q 1214 0 1214 0 l 882 0 q 882 0 882 0 q 882 0 882 0 l 882 329 l 861 329 l 861 293 q 822 125 861 194 q 719 21 782 56 q 590 -14 657 -14 l 590 -14 z "},"h":{"ha":1246,"x_min":28,"x_max":1219,"o":"m 28 1111 l 369 1111 q 456 1084 422 1111 q 497 1013 490 1057 q 476 918 503 968 l 189 374 l 219 363 q 228 382 224 372 l 231 388 q 409 628 297 538 q 713 719 521 719 l 713 719 q 966 658 850 719 q 1151 479 1082 596 q 1218 204 1219 363 l 1217 0 l 717 0 l 717 339 q 749 415 717 383 q 826 447 781 447 l 1013 447 l 1013 475 l 381 475 l 381 447 l 567 447 q 643 415 611 447 q 675 339 675 383 l 675 0 l 28 0 l 28 1111 z "},"i":{"ha":1174,"x_min":29,"x_max":1146,"o":"m 844 956 q 880 965 864 956 q 905 990 896 974 q 914 1026 914 1007 l 914 1054 q 905 1090 914 1074 q 880 1115 896 1106 q 844 1124 864 1124 l 533 1124 q 498 1115 514 1124 q 473 1090 482 1106 q 464 1054 464 1074 l 464 1026 q 473 990 464 1007 q 499 965 482 974 q 535 956 515 956 l 844 956 m 383 819 q 442 842 418 819 q 465 901 465 864 l 465 925 l 922 925 l 922 901 q 947 842 922 865 q 1006 819 971 819 l 1146 819 l 1146 0 l 718 0 l 718 808 l 685 808 l 685 471 q 642 176 685 278 q 515 38 600 75 q 282 0 429 0 l 29 0 l 29 819 l 383 819 z "},"ĳ":{"ha":1983,"x_min":29,"x_max":1956,"o":"m 844 956 q 880 965 864 956 q 905 990 896 974 q 914 1026 914 1007 l 914 1054 q 905 1090 914 1074 q 880 1115 896 1106 q 844 1124 864 1124 l 533 1124 q 498 1115 514 1124 q 473 1090 482 1106 q 464 1054 464 1074 l 464 1026 q 473 990 464 1007 q 499 965 482 974 q 535 956 515 956 l 844 956 m 383 819 q 442 842 418 819 q 465 901 465 864 l 465 925 l 922 925 l 922 901 q 947 842 922 865 q 1006 819 971 819 l 1146 819 l 1146 0 l 718 0 l 718 808 l 685 808 l 685 471 q 642 176 685 278 q 515 38 600 75 q 282 0 429 0 l 29 0 l 29 819 l 383 819 m 1779 618 q 1886 574 1842 618 q 1931 467 1931 529 l 1931 0 q 1931 0 1931 0 q 1931 0 1931 0 l 1393 0 q 1393 0 1393 0 q 1393 0 1393 0 l 1393 93 q 1373 141 1393 121 q 1325 161 1353 161 q 1277 141 1297 161 q 1257 93 1257 121 l 1257 0 q 1257 0 1257 0 q 1257 0 1257 0 l 1188 0 l 1188 100 q 1223 230 1188 169 q 1319 326 1258 290 q 1450 361 1379 361 l 1526 361 q 1650 333 1596 361 q 1734 257 1704 304 q 1764 153 1764 210 l 1764 140 q 1778 106 1764 119 q 1813 92 1792 92 q 1847 106 1833 92 q 1861 140 1861 119 l 1861 467 q 1837 524 1861 499 q 1779 549 1813 549 q 1725 528 1742 549 q 1693 464 1708 507 q 1659 397 1678 419 q 1596 374 1640 374 l 1572 374 l 1572 617 l 1779 618 m 1729 632 q 1616 663 1668 632 q 1533 745 1564 693 q 1503 858 1503 797 q 1533 972 1503 919 q 1616 1054 1564 1024 q 1729 1085 1668 1085 q 1842 1054 1790 1085 q 1925 972 1894 1024 q 1956 858 1956 919 q 1925 745 1956 797 q 1842 663 1894 693 q 1729 632 1790 632 z "},"j":{"ha":824,"x_min":28,"x_max":796,"o":"m 619 618 q 726 574 682 618 q 771 467 771 529 l 771 0 q 771 0 771 0 q 771 0 771 0 l 233 0 q 233 0 233 0 q 233 0 233 0 l 233 93 q 213 141 233 121 q 165 161 193 161 q 117 141 138 161 q 97 93 97 121 l 97 0 q 97 0 97 0 q 97 0 97 0 l 28 0 l 28 100 q 63 230 28 169 q 159 326 99 290 q 290 361 219 361 l 367 361 q 490 333 436 361 q 574 257 544 304 q 604 153 604 210 l 604 140 q 618 106 604 119 q 653 92 632 92 q 688 106 674 92 q 701 140 701 119 l 701 467 q 677 524 701 499 q 619 549 653 549 q 565 528 582 549 q 533 464 549 507 q 499 397 518 419 q 436 374 481 374 l 413 374 l 413 617 l 619 618 m 569 632 q 456 663 508 632 q 374 745 404 693 q 343 858 343 797 q 374 972 343 919 q 456 1054 404 1024 q 569 1085 508 1085 q 683 1054 631 1085 q 765 972 735 1024 q 796 858 796 919 q 765 745 796 797 q 683 663 735 693 q 569 632 631 632 z "},"k":{"ha":828,"x_min":28,"x_max":800,"o":"m 28 1111 l 246 1111 q 246 1111 246 1111 q 246 1111 246 1111 l 246 1051 q 246 1051 246 1051 q 246 1051 246 1051 l 224 1051 q 152 1022 182 1051 q 122 951 122 993 q 152 881 122 911 q 224 851 182 851 l 224 851 q 293 881 264 851 q 322 951 322 911 l 322 996 q 322 996 322 996 q 322 996 322 996 l 388 996 q 388 996 388 996 q 388 996 388 996 l 388 799 q 388 799 388 799 q 388 799 388 799 l 117 799 l 117 765 l 800 765 q 800 765 800 765 q 800 765 800 765 l 800 0 l 435 0 l 435 69 q 580 113 511 71 q 690 226 649 154 q 731 383 731 297 q 688 542 731 469 q 574 656 646 614 q 415 699 501 699 q 256 656 329 699 q 140 542 182 614 q 97 383 97 469 q 139 226 97 297 q 250 114 181 156 q 399 69 319 72 l 399 0 l 28 0 l 28 1111 z "},"l":{"ha":1042,"x_min":42,"x_max":1014,"o":"m 474 0 q 244 49 342 0 q 94 184 146 97 q 42 383 42 271 l 42 383 q 93 582 42 501 q 231 701 144 663 q 422 740 317 740 l 444 740 q 492 758 478 740 q 508 801 506 775 q 510 886 510 826 l 510 1110 q 510 1110 510 1110 q 510 1111 510 1111 q 511 1111 511 1111 l 894 1111 q 894 1111 894 1111 q 894 1111 894 1111 q 894 1111 894 1111 l 475 422 l 507 407 l 550 474 q 689 600 607 563 q 908 638 771 638 l 1014 638 q 1014 638 1014 638 q 1014 638 1014 638 q 1014 638 1014 638 l 1014 0 q 1014 0 1014 0 q 1014 0 1014 0 l 474 0 z "},"m":{"ha":943,"x_min":28,"x_max":915,"o":"m 28 924 q 55 1024 28 978 q 128 1098 82 1071 q 229 1125 174 1125 l 229 1125 q 330 1098 283 1125 q 403 1024 376 1071 q 431 924 431 978 l 431 329 q 443 301 431 314 q 472 289 456 289 l 472 289 q 500 301 488 289 q 513 329 513 314 l 513 924 q 540 1024 513 978 q 613 1098 567 1071 q 715 1125 660 1125 l 715 1125 q 815 1098 768 1125 q 888 1024 861 1071 q 915 924 915 978 l 915 0 l 846 0 q 846 195 846 131 q 846 325 846 260 q 846 519 846 390 q 828 585 846 556 q 780 633 810 615 q 714 651 750 651 q 647 633 678 651 q 599 585 617 615 q 582 519 582 556 q 582 325 582 390 q 582 195 582 260 q 582 0 582 131 l 361 0 q 361 195 361 131 q 361 325 361 260 q 361 519 361 390 q 343 585 361 556 q 295 633 325 615 q 229 651 265 651 q 163 633 193 651 q 115 585 132 615 q 97 519 97 556 q 97 325 97 390 q 97 195 97 260 q 97 0 97 131 l 28 0 l 28 924 z "},"n":{"ha":1496,"x_min":28,"x_max":1468,"o":"m 28 1111 l 389 1111 l 176 821 l 210 821 l 228 844 q 469 1050 328 975 q 794 1125 610 1125 q 1131 1035 976 1125 q 1377 788 1286 944 q 1468 444 1468 632 l 1468 0 l 394 0 l 394 69 q 501 103 451 72 q 582 186 551 135 q 613 300 613 238 q 581 415 613 363 q 497 499 550 468 q 381 529 443 529 q 265 499 318 529 q 181 415 213 468 q 150 300 150 363 q 182 185 150 239 q 264 101 214 132 q 367 69 314 69 l 367 0 l 28 0 l 28 1111 z "},"o":{"ha":757,"x_min":28,"x_max":729,"o":"m 28 1111 q 28 1111 28 1111 q 28 1111 28 1111 q 28 1111 28 1111 l 729 1111 q 729 1111 729 1111 q 729 1111 729 1111 q 729 1111 729 1111 l 729 0 q 729 0 729 0 q 729 0 729 0 q 729 0 729 0 l 28 0 q 28 0 28 0 q 28 0 28 0 q 28 0 28 0 l 28 1111 m 379 67 q 519 105 456 67 q 622 208 583 143 q 660 349 660 272 l 660 349 q 622 488 660 424 q 519 590 583 553 q 379 628 456 628 l 379 628 q 238 590 303 628 q 136 488 174 553 q 99 349 99 424 l 99 349 q 136 208 99 272 q 238 105 174 143 q 379 67 303 67 l 379 67 z "},"œ":{"ha":1432,"x_min":28,"x_max":1404,"o":"m 1101 0 q 1101 0 1101 0 q 1101 0 1101 0 l 28 0 q 28 0 28 0 q 28 0 28 0 q 28 0 28 0 l 28 1111 q 28 1111 28 1111 q 28 1111 28 1111 q 28 1111 28 1111 l 1082 1111 q 1082 1111 1082 1111 q 1082 1111 1082 1111 l 1101 0 m 585 68 q 826 136 715 69 q 1003 315 938 203 q 1068 558 1068 426 l 1068 558 q 1003 801 1068 689 q 826 978 938 913 q 585 1043 715 1043 l 585 1043 q 340 979 453 1044 q 162 802 228 914 q 96 558 96 690 l 96 558 q 162 313 96 426 q 340 134 228 200 q 585 68 453 68 l 585 68 m 1404 985 q 1363 885 1404 926 q 1265 844 1322 844 l 1265 844 q 1165 885 1206 844 q 1124 985 1124 926 l 1124 1050 l 1110 1050 l 1110 831 l 1160 831 q 1283 797 1226 831 q 1372 708 1339 764 q 1404 585 1404 651 l 1404 585 q 1371 462 1404 518 q 1281 372 1338 406 q 1158 339 1225 339 l 1110 339 l 1110 78 l 1124 78 l 1124 171 q 1165 269 1124 228 q 1263 310 1206 310 l 1263 310 q 1360 269 1319 310 q 1401 171 1401 228 l 1401 0 l 1031 0 l 1031 0 l 1031 251 l 1031 251 l 1079 251 l 1079 251 l 1079 1028 l 1079 1028 l 1031 1028 l 1031 1028 l 1031 1111 l 1031 1111 l 1404 1111 l 1404 985 z "},"p":{"ha":1551,"x_min":28,"x_max":1524,"o":"m 28 0 q 28 0 28 0 q 28 0 28 0 q 28 0 28 0 l 819 918 q 819 918 819 918 q 819 918 819 918 l 792 943 q 792 943 792 943 q 792 943 792 943 l 281 356 q 281 356 281 356 q 281 356 281 356 q 281 356 281 356 l 281 1111 q 281 1111 281 1111 q 281 1111 281 1111 l 1524 1111 q 1524 1111 1524 1111 q 1524 1111 1524 1111 l 1524 0 q 1524 0 1524 0 q 1524 0 1524 0 q 1524 0 1524 0 l 825 736 q 825 736 825 736 q 825 736 825 736 l 797 710 q 797 710 797 710 q 797 710 797 710 l 797 710 l 1478 0 q 1478 0 1478 0 q 1478 0 1478 0 q 1478 0 1478 0 l 28 0 m 1215 608 q 1284 626 1253 608 q 1333 676 1315 644 q 1351 744 1351 707 q 1333 813 1351 782 q 1284 863 1315 844 q 1215 881 1253 881 q 1147 863 1178 881 q 1097 813 1115 844 q 1079 744 1079 782 q 1097 676 1079 707 q 1147 626 1115 644 q 1215 608 1178 608 z "},"q":{"ha":1861,"x_min":28,"x_max":1833,"o":"m 817 939 q 770 951 792 939 q 736 985 749 964 q 724 1032 724 1007 q 736 1078 724 1057 q 770 1113 749 1100 q 817 1125 792 1125 q 863 1113 842 1125 q 897 1078 885 1100 q 910 1032 910 1057 q 897 985 910 1007 q 863 951 885 964 q 817 939 842 939 m 910 865 q 935 805 910 831 q 996 779 961 779 q 1057 805 1032 779 q 1082 865 1082 831 l 1082 999 q 1082 999 1082 999 q 1082 999 1082 999 l 1833 999 l 1833 543 q 1690 127 1833 267 q 1293 -12 1547 -12 l 1293 -12 q 941 89 1058 -12 q 824 371 824 190 l 824 526 q 790 609 824 575 q 708 643 756 643 q 626 609 660 643 q 592 526 592 575 l 592 0 l 28 0 q 83 240 28 142 q 257 438 138 338 l 854 939 l 854 971 l 910 1032 l 910 865 m 817 1000 q 840 1009 831 1000 q 849 1032 849 1018 l 849 1032 q 840 1055 849 1046 q 817 1064 831 1064 l 817 1064 q 794 1055 803 1064 q 785 1032 785 1046 l 785 1032 q 794 1009 785 1018 q 817 1000 803 1000 l 817 1000 z "},"r":{"ha":1161,"x_min":28,"x_max":1133,"o":"m 28 1111 l 576 1111 q 702 1059 650 1111 q 754 933 754 1007 l 754 933 q 702 808 754 860 q 576 756 650 756 l 142 756 l 142 728 l 775 728 q 960 683 879 728 q 1088 556 1042 638 q 1133 372 1133 475 l 1133 0 l 769 0 l 769 83 q 907 122 843 83 q 1009 228 971 161 q 1047 372 1047 294 q 1009 515 1047 450 q 905 619 971 581 q 761 658 839 658 l 428 658 q 285 619 351 658 q 181 515 219 581 q 142 372 142 449 q 180 228 142 294 q 282 122 218 161 q 419 83 346 83 l 419 0 l 28 0 l 28 1111 m 579 825 q 631 840 607 825 q 670 879 656 854 q 685 933 685 904 q 670 988 685 963 q 631 1027 656 1013 q 579 1042 607 1042 q 527 1027 551 1042 q 488 988 503 1013 q 474 933 474 963 q 488 879 474 904 q 527 840 503 854 q 579 825 551 825 z "},"s":{"ha":764,"x_min":28,"x_max":736,"o":"m 306 986 l 306 847 l 167 847 l 167 986 l 306 986 m 458 1125 l 458 986 l 306 986 l 306 1125 l 458 1125 m 167 847 l 167 632 l 28 632 l 28 847 l 167 847 m 306 632 l 306 493 l 167 493 l 167 632 l 306 632 m 167 493 l 167 278 l 28 278 l 28 493 l 167 493 m 306 278 l 306 139 l 167 139 l 167 278 l 306 278 m 458 139 l 458 0 l 306 0 l 306 139 l 458 139 m 431 493 l 431 368 l 306 368 l 306 493 l 431 493 m 458 139 l 458 278 l 597 278 l 597 139 l 458 139 m 597 278 l 597 493 l 736 493 l 736 278 l 597 278 m 458 493 l 458 632 l 597 632 l 597 493 l 458 493 m 597 632 l 597 847 l 736 847 l 736 632 l 597 632 m 458 847 l 458 986 l 597 986 l 597 847 l 458 847 m 333 632 l 333 757 l 458 757 l 458 632 l 333 632 z "},"t":{"ha":929,"x_min":28,"x_max":901,"o":"m 574 -14 q 366 68 444 -14 q 288 303 288 150 l 288 361 l 28 361 l 28 522 l 189 522 q 261 551 235 522 q 288 642 288 579 l 288 1111 l 357 1111 l 357 561 q 372 532 357 542 q 403 528 386 522 q 425 550 419 533 l 586 1015 q 686 1119 614 1097 q 819 1087 758 1140 q 879 918 879 1033 l 879 361 l 357 361 l 357 344 q 411 242 357 276 q 581 207 465 207 q 703 219 653 207 q 778 249 753 231 q 803 286 803 267 l 901 286 l 901 271 q 857 117 901 182 q 738 19 813 53 q 574 -14 664 -14 z "},"u":{"ha":2479,"x_min":28,"x_max":2451,"o":"m 28 0 q 28 0 28 0 q 28 0 28 0 q 28 0 28 0 l 28 1111 l 28 1111 l 1228 1111 l 1228 1111 l 1228 286 q 1258 173 1228 225 q 1340 90 1288 121 q 1454 60 1392 60 q 1567 90 1515 60 q 1649 173 1619 121 q 1679 286 1679 225 l 1679 1111 q 1679 1111 1679 1111 q 1679 1111 1679 1111 l 1826 1111 q 1826 1111 1826 1111 q 1826 1111 1826 1111 q 1826 1111 1826 1111 l 2451 0 q 2451 0 2451 0 q 2451 0 2451 0 q 2451 0 2451 0 l 1801 0 l 1803 821 q 1803 821 1803 821 q 1803 821 1803 821 l 1761 821 q 1761 821 1761 821 q 1761 821 1761 821 l 1761 0 q 1761 0 1761 0 q 1761 0 1761 0 l 28 0 z "},"v":{"ha":1185,"x_min":28,"x_max":1157,"o":"m 478 0 q 401 18 436 0 q 342 74 365 36 l 97 460 q 45 567 63 514 q 28 681 28 621 l 28 1004 q 56 1083 28 1054 q 135 1111 85 1111 l 488 1111 q 551 1085 524 1111 q 578 1021 578 1058 l 578 1021 q 555 963 578 985 q 488 931 532 940 q 353 864 421 914 q 241 734 286 814 q 196 553 196 654 q 249 353 196 444 q 394 209 303 263 q 593 156 486 156 q 791 209 700 156 q 935 353 882 263 q 989 553 989 444 q 944 734 989 654 q 831 864 899 814 q 697 931 764 914 q 630 963 653 940 q 607 1021 607 985 l 607 1021 q 634 1085 607 1058 q 697 1111 661 1111 l 1049 1111 q 1128 1083 1100 1111 q 1157 1004 1157 1054 l 1157 681 q 1140 567 1157 621 q 1088 460 1122 514 l 843 74 q 784 18 819 36 q 707 0 749 0 l 478 0 z "},"w":{"ha":2657,"x_min":28,"x_max":2629,"o":"m 28 1111 l 1278 1111 l 97 281 l 1194 281 l 1194 832 q 1234 926 1194 888 q 1329 965 1274 965 l 1329 965 q 1424 926 1385 965 q 1463 832 1463 888 l 1463 281 l 2560 281 l 1379 1111 l 2629 1111 l 2629 0 l 1393 0 l 1393 647 q 1374 692 1393 674 q 1329 711 1356 711 l 1329 711 q 1283 692 1303 711 q 1264 647 1264 674 l 1264 0 l 28 0 l 28 1111 z "},"x":{"ha":975,"x_min":28,"x_max":947,"o":"m 28 113 q 41 165 28 144 q 85 192 54 186 l 186 211 q 217 226 207 215 q 228 253 228 238 q 219 278 228 268 q 193 293 210 289 l 67 324 q 28 376 28 333 l 28 1111 l 231 1111 l 231 371 q 245 336 231 350 q 279 322 260 322 q 313 336 299 322 q 328 371 328 350 l 328 1111 l 947 1111 l 947 478 q 928 406 947 436 q 869 371 910 376 l 365 294 q 339 280 347 292 q 331 253 331 268 q 340 226 331 238 q 368 213 350 214 l 896 154 q 933 133 919 151 q 947 89 947 115 l 947 0 l 328 0 l 328 136 q 313 169 328 156 q 279 183 299 183 q 245 169 260 183 q 231 136 231 156 l 231 0 l 28 0 l 28 113 z "},"y":{"ha":1878,"x_min":28,"x_max":1850,"o":"m 492 143 l 504 143 q 890 244 749 143 q 1031 540 1031 346 l 1031 1028 l 989 1028 l 989 540 q 859 268 989 351 q 504 185 729 185 q 231 245 338 185 q 76 406 124 306 q 28 629 28 506 l 28 1111 l 861 1111 l 861 490 q 867 475 861 481 q 882 469 874 469 q 897 475 890 469 q 903 490 903 481 l 903 1111 l 1850 1111 l 1850 1071 q 1708 550 1850 794 q 1265 153 1565 306 q 514 0 964 0 l 492 0 l 492 143 z "},"z":{"ha":1110,"x_min":28,"x_max":1082,"o":"m 28 410 q 80 558 28 501 q 229 615 132 615 l 836 615 q 881 634 863 615 q 900 679 900 653 q 881 724 900 706 q 836 743 863 743 l 251 743 q 155 784 196 743 q 114 881 114 825 l 114 1111 l 296 1111 q 385 1086 358 1111 q 411 990 411 1061 l 411 790 l 436 790 l 436 815 q 478 972 436 901 q 592 1084 521 1043 q 746 1125 663 1125 l 746 1125 q 899 1083 828 1125 q 1013 969 971 1040 q 1054 815 1054 897 l 1054 815 q 994 608 1054 675 q 836 540 933 540 l 292 540 q 246 522 265 540 q 226 475 226 503 q 246 429 226 449 q 292 410 265 410 l 890 410 q 986 384 942 410 q 1056 314 1031 358 q 1082 218 1082 269 l 1082 0 l 668 0 l 668 103 q 632 191 668 154 q 546 228 596 228 l 546 228 q 455 192 492 228 q 418 103 418 156 l 418 0 l 28 0 l 28 410 z "},".":{"ha":306,"x_min":42,"x_max":264,"o":"m 42 222 l 264 222 l 264 0 l 42 0 l 42 222 z "},",":{"ha":278,"x_min":28,"x_max":250,"o":"m 86 -50 l 106 -50 q 156 -6 156 -50 l 156 0 l 28 0 l 28 222 l 250 222 l 250 1 q 115 -132 250 -132 l 86 -132 l 86 -50 z "},":":{"ha":306,"x_min":42,"x_max":264,"o":"m 42 639 l 264 639 l 264 417 l 42 417 l 42 639 m 42 222 l 264 222 l 264 0 l 42 0 l 42 222 z "},";":{"ha":306,"x_min":42,"x_max":264,"o":"m 42 640 l 264 640 l 264 418 l 42 418 l 42 640 m 100 -50 l 119 -50 q 169 -6 169 -50 l 169 0 l 42 0 l 42 222 l 264 222 l 264 1 q 129 -132 264 -132 l 100 -132 l 100 -50 z "},"…":{"ha":835,"x_min":42,"x_max":793,"o":"m 571 222 l 793 222 l 793 0 l 571 0 l 571 222 m 42 222 l 264 222 l 264 0 l 42 0 l 42 222 m 306 222 l 528 222 l 528 0 l 306 0 l 306 222 z "},"!":{"ha":325,"x_min":42,"x_max":283,"o":"m 42 1111 l 283 1111 l 249 289 l 76 289 l 42 1111 m 51 222 l 274 222 l 274 0 l 51 0 l 51 222 z "},"¡":{"ha":347,"x_min":42,"x_max":283,"o":"m 249 822 l 283 0 l 42 0 l 76 822 l 249 822 m 274 1111 l 274 889 l 51 889 l 51 1111 l 274 1111 z "},"?":{"ha":975,"x_min":42,"x_max":933,"o":"m 342 513 l 471 513 q 628 545 564 513 q 722 631 692 578 q 753 747 753 685 q 682 891 753 838 q 499 944 611 944 q 351 913 414 944 q 254 833 288 882 q 222 733 221 785 l 42 733 q 108 949 42 861 q 280 1081 175 1038 q 499 1125 385 1125 q 723 1076 624 1125 q 878 942 822 1026 q 933 753 933 857 q 883 561 933 650 q 747 420 832 472 q 564 368 663 368 l 564 293 l 342 293 l 342 513 m 343 222 l 565 222 l 565 0 l 343 0 l 343 222 z "},"¿":{"ha":975,"x_min":42,"x_max":933,"o":"m 633 381 l 504 381 q 347 348 411 381 q 253 262 283 315 q 222 146 222 208 q 293 2 222 56 q 476 -51 364 -51 q 624 -20 561 -51 q 721 60 688 11 q 753 160 754 108 l 933 160 q 867 -56 933 32 q 695 -188 800 -144 q 476 -232 590 -232 q 252 -183 351 -232 q 97 -49 153 -133 q 42 140 42 36 q 92 332 42 243 q 228 473 143 421 q 411 525 313 525 l 411 600 l 633 600 l 633 381 m 632 671 l 410 671 l 410 893 l 632 893 l 632 671 z "},"·":{"ha":306,"x_min":42,"x_max":264,"o":"m 42 553 l 264 553 l 264 331 l 42 331 l 42 553 z "},"•":{"ha":528,"x_min":42,"x_max":486,"o":"m 42 696 l 486 696 l 486 251 l 42 251 l 42 696 z "},"*":{"ha":607,"x_min":42,"x_max":565,"o":"m 279 743 l 265 749 l 68 625 l 42 668 l 250 797 l 250 811 l 43 940 l 72 979 l 265 857 l 279 865 l 278 1075 l 333 1075 l 332 865 l 344 856 l 533 974 l 560 931 l 363 810 l 363 796 l 565 669 l 536 631 l 347 750 l 333 743 l 333 531 l 278 531 l 279 743 z "},"#":{"ha":1006,"x_min":42,"x_max":964,"o":"m 810 949 l 876 949 l 583 -1 l 517 -1 l 810 949 m 68 328 l 906 328 l 879 265 l 42 265 l 68 328 m 414 949 l 479 949 l 186 -1 l 119 -1 l 414 949 m 126 658 l 964 658 l 938 594 l 100 594 l 126 658 z "},"/":{"ha":524,"x_min":42,"x_max":482,"o":"m 413 1246 l 482 1246 l 111 -139 l 42 -139 l 413 1246 z "},"\\":{"ha":524,"x_min":42,"x_max":482,"o":"m 42 1246 l 111 1246 l 482 -139 l 413 -139 l 42 1246 z "},"-":{"ha":611,"x_min":42,"x_max":569,"o":"m 42 539 l 569 539 l 569 469 l 42 469 l 42 539 z "},"–":{"ha":883,"x_min":42,"x_max":842,"o":"m 42 539 l 842 539 l 842 469 l 42 469 l 42 539 z "},"—":{"ha":1358,"x_min":42,"x_max":1317,"o":"m 42 539 l 1317 539 l 1317 469 l 42 469 l 42 539 z "},"_":{"ha":833,"x_min":42,"x_max":792,"o":"m 42 -40 l 792 -40 l 792 -110 l 42 -110 l 42 -40 z "},"(":{"ha":494,"x_min":42,"x_max":453,"o":"m 422 -140 q 142 135 243 -43 q 42 538 42 314 q 141 939 42 761 q 417 1215 240 1117 l 453 1157 q 201 902 289 1067 q 113 540 113 738 q 201 176 113 340 q 453 -79 289 11 l 422 -140 z "},")":{"ha":494,"x_min":42,"x_max":453,"o":"m 42 -79 q 294 176 206 11 q 382 540 382 340 q 294 902 382 738 q 42 1157 206 1067 l 78 1215 q 353 939 254 1117 q 453 538 453 761 q 352 135 453 314 q 72 -140 251 -43 l 42 -79 z "},"{":{"ha":379,"x_min":42,"x_max":338,"o":"m 293 -89 q 206 -53 242 -89 q 169 33 169 -18 l 169 421 q 153 459 169 442 q 115 476 136 476 l 42 476 l 42 629 l 115 629 q 153 647 136 629 q 169 685 169 664 l 169 1072 q 206 1159 169 1124 q 293 1194 242 1194 l 338 1194 l 338 1125 l 293 1125 q 255 1110 271 1125 q 239 1072 239 1094 l 239 685 q 203 597 239 633 q 115 560 167 560 l 111 560 l 111 546 l 115 546 q 203 509 167 546 q 239 421 239 472 l 239 33 q 255 -4 239 11 q 293 -19 271 -19 l 338 -19 l 338 -89 l 293 -89 z "},"}":{"ha":379,"x_min":42,"x_max":338,"o":"m 42 -19 l 86 -19 q 124 -4 108 -19 q 140 33 140 11 l 140 421 q 176 509 140 472 q 264 546 213 546 l 268 546 l 268 560 l 264 560 q 176 597 213 560 q 140 685 140 633 l 140 1072 q 124 1110 140 1094 q 86 1125 108 1125 l 42 1125 l 42 1194 l 86 1194 q 174 1159 138 1194 q 210 1072 210 1124 l 210 685 q 226 647 210 664 q 264 629 243 629 l 338 629 l 338 476 l 264 476 q 226 459 243 476 q 210 421 210 442 l 210 33 q 174 -53 210 -18 q 86 -89 138 -89 l 42 -89 l 42 -19 z "},"[":{"ha":247,"x_min":42,"x_max":206,"o":"m 42 1194 l 206 1194 l 206 1125 l 111 1125 l 111 -19 l 206 -19 l 206 -89 l 42 -89 l 42 1194 z "},"]":{"ha":247,"x_min":42,"x_max":206,"o":"m 42 -19 l 136 -19 l 136 1125 l 42 1125 l 42 1194 l 206 1194 l 206 -89 l 42 -89 l 42 -19 z "},"‚":{"ha":283,"x_min":42,"x_max":242,"o":"m 94 898 l 112 898 q 157 938 157 898 l 157 943 l 42 943 l 42 1143 l 242 1143 l 242 944 q 120 824 242 824 l 94 824 l 94 898 z "},"„":{"ha":501,"x_min":42,"x_max":460,"o":"m 94 898 l 112 898 q 157 938 157 898 l 157 943 l 42 943 l 42 1143 l 242 1143 l 242 944 q 120 824 242 824 l 94 824 l 94 898 m 312 898 l 330 898 q 375 938 375 898 l 375 943 l 260 943 l 260 1143 l 460 1143 l 460 944 q 338 824 460 824 l 312 824 l 312 898 z "},"“":{"ha":506,"x_min":42,"x_max":464,"o":"m 411 1071 l 394 1071 q 349 1031 349 1071 l 349 1026 l 464 1026 l 464 826 l 264 826 l 264 1025 q 385 1145 264 1145 l 411 1145 l 411 1071 m 189 1071 l 172 1071 q 127 1031 127 1071 l 127 1026 l 242 1026 l 242 826 l 42 826 l 42 1025 q 163 1145 42 1145 l 189 1145 l 189 1071 z "},"”":{"ha":510,"x_min":42,"x_max":468,"o":"m 321 901 l 338 901 q 383 941 383 901 l 383 946 l 268 946 l 268 1146 l 468 1146 l 468 947 q 347 827 468 827 l 321 827 l 321 901 m 94 901 l 112 901 q 157 941 157 901 l 157 946 l 42 946 l 42 1146 l 242 1146 l 242 947 q 120 827 242 827 l 94 827 l 94 901 z "},"‘":{"ha":283,"x_min":42,"x_max":242,"o":"m 189 1071 l 172 1071 q 127 1031 127 1071 l 127 1026 l 242 1026 l 242 826 l 42 826 l 42 1025 q 163 1145 42 1145 l 189 1145 l 189 1071 z "},"’":{"ha":283,"x_min":42,"x_max":242,"o":"m 94 899 l 112 899 q 157 939 157 899 l 157 944 l 42 944 l 42 1144 l 242 1144 l 242 946 q 120 826 242 826 l 94 826 l 94 899 z "},"«":{"ha":515,"x_min":42,"x_max":474,"o":"m 236 469 l 425 738 l 474 703 l 314 475 l 314 463 l 474 236 l 425 201 l 236 469 m 42 469 l 231 738 l 279 703 l 119 475 l 119 463 l 279 236 l 231 201 l 42 469 z "},"»":{"ha":515,"x_min":42,"x_max":474,"o":"m 42 236 l 201 463 l 201 475 l 42 703 l 90 738 l 279 469 l 90 201 l 42 236 m 236 236 l 396 463 l 396 475 l 236 703 l 285 738 l 474 469 l 285 201 l 236 236 z "},"‹":{"ha":321,"x_min":42,"x_max":279,"o":"m 42 469 l 231 738 l 279 703 l 119 475 l 119 463 l 279 236 l 231 201 l 42 469 z "},"›":{"ha":321,"x_min":42,"x_max":279,"o":"m 42 236 l 201 463 l 201 475 l 42 703 l 90 738 l 279 469 l 90 201 l 42 236 z "},"\"":{"ha":369,"x_min":42,"x_max":328,"o":"m 42 1143 l 167 1143 l 139 792 l 69 792 l 42 1143 m 203 1143 l 328 1143 l 300 792 l 231 792 l 203 1143 z "},"'":{"ha":208,"x_min":42,"x_max":167,"o":"m 42 1143 l 167 1143 l 139 792 l 69 792 l 42 1143 z "},"@":{"ha":1486,"x_min":42,"x_max":1451,"o":"m 683 -149 q 307 -83 449 -149 q 103 108 165 -17 q 42 421 42 233 q 122 785 42 629 q 349 1026 201 942 q 696 1111 496 1111 l 718 1111 q 866 1080 801 1111 q 978 964 931 1049 l 1428 151 q 1443 74 1451 108 q 1408 20 1435 40 q 1353 0 1381 0 l 1171 0 q 1103 28 1132 0 q 1075 96 1075 57 l 1075 185 l 1075 218 q 1075 306 1075 278 q 1075 392 1075 335 q 1059 430 1075 414 q 1021 446 1043 446 q 982 430 999 446 q 965 392 965 414 l 965 261 q 928 123 965 186 q 828 23 892 60 q 690 -14 765 -14 l 664 -14 q 524 23 588 -14 q 424 123 461 60 q 388 261 388 186 l 388 261 q 424 401 388 339 q 522 500 460 464 q 664 536 585 536 l 918 536 q 987 565 958 536 q 1015 635 1015 593 q 987 703 1015 675 q 918 732 958 732 l 664 732 q 434 674 531 732 q 288 519 338 615 q 238 313 238 422 q 269 120 238 210 q 392 -31 301 31 q 644 -93 482 -93 l 1038 -93 l 1038 -149 l 683 -149 m 683 176 q 727 188 707 176 q 759 220 747 200 q 771 264 771 240 q 759 308 771 288 q 727 341 747 329 q 683 353 707 353 q 639 341 660 353 q 606 308 618 329 q 594 264 594 288 q 606 220 594 240 q 639 188 618 200 q 683 176 660 176 z "},"&":{"ha":1300,"x_min":42,"x_max":1258,"o":"m 42 561 q 42 561 42 561 q 42 561 42 561 q 42 561 42 561 l 447 561 l 449 1111 q 449 1111 449 1111 q 449 1111 449 1111 l 1257 1111 q 1257 1111 1257 1111 q 1257 1111 1257 1111 q 1257 1111 1257 1111 l 1257 543 q 1257 543 1257 543 q 1257 543 1257 543 q 1257 543 1257 543 l 518 543 q 518 543 518 543 q 518 543 518 543 l 518 456 q 518 456 518 456 q 518 456 518 456 l 1258 456 l 1258 0 l 667 0 q 667 0 667 0 q 667 0 667 0 l 492 382 q 492 382 492 382 q 492 382 492 382 l 449 382 q 449 382 449 382 q 449 382 449 382 l 449 0 l 42 0 q 42 0 42 0 q 42 0 42 0 q 42 0 42 0 l 42 561 m 961 613 q 1069 642 1019 613 q 1147 720 1118 671 q 1176 828 1176 769 q 1147 934 1176 885 q 1069 1013 1118 983 q 961 1042 1019 1042 l 732 1042 q 625 1013 674 1042 q 547 934 576 983 q 518 828 518 885 q 547 720 518 769 q 624 642 575 671 q 732 613 674 613 l 961 613 m 251 56 q 318 77 288 56 q 367 133 349 99 q 386 206 386 168 l 386 357 q 368 424 386 393 q 319 474 350 456 q 251 492 288 492 q 184 474 215 492 q 135 424 153 456 q 117 357 117 393 l 117 206 q 135 133 117 168 q 184 77 153 99 q 251 56 215 56 z "},"©":{"ha":614,"x_min":42,"x_max":572,"o":"m 439 726 l 172 726 l 172 993 l 439 993 l 439 867 l 407 867 q 375 933 403 906 q 307 960 347 960 q 237 931 267 960 q 207 860 207 901 q 237 790 207 819 q 307 761 267 761 q 376 788 347 761 q 407 851 404 815 l 439 851 l 439 726 m 307 593 q 440 629 379 593 q 536 726 500 665 q 572 860 572 788 l 572 860 q 536 992 572 931 q 440 1088 500 1053 q 307 1124 379 1124 l 307 1124 q 174 1088 235 1124 q 77 992 113 1053 q 42 860 42 931 l 42 860 q 77 726 42 788 q 174 629 113 665 q 307 593 235 593 l 307 593 m 307 622 q 188 654 242 622 q 102 740 133 686 q 71 860 71 794 l 71 860 q 102 977 71 924 q 188 1063 133 1031 q 307 1094 242 1094 l 307 1094 q 425 1063 371 1094 q 511 977 479 1031 q 543 860 543 924 l 543 860 q 511 740 543 794 q 425 654 479 686 q 307 622 371 622 l 307 622 z "},"®":{"ha":556,"x_min":14,"x_max":542,"o":"m 424 1004 l 424 825 l 424 825 l 161 825 l 161 811 l 424 811 l 424 811 l 424 714 l 313 714 l 313 763 q 305 781 313 774 q 286 789 297 789 q 267 781 275 789 q 258 763 258 774 l 258 714 l 133 714 l 133 1004 l 424 1004 l 424 1004 m 278 864 q 317 880 301 864 q 332 918 332 896 q 317 957 332 942 q 278 972 301 972 l 278 972 q 240 957 256 972 q 224 918 224 942 q 240 880 224 896 q 278 864 256 864 l 278 864 m 278 594 q 410 631 349 594 q 506 728 471 667 q 542 861 542 789 l 542 861 q 506 992 542 932 q 409 1088 469 1053 q 278 1124 349 1124 l 278 1124 q 145 1088 206 1124 q 49 992 85 1053 q 14 861 14 932 l 14 861 q 49 728 14 789 q 145 631 85 667 q 278 594 206 594 l 278 594 m 278 625 q 159 656 213 625 q 74 742 106 688 q 43 861 43 796 l 43 861 q 74 978 43 925 q 159 1063 106 1032 q 278 1094 213 1094 l 278 1094 q 396 1063 342 1094 q 481 978 450 1032 q 513 861 513 925 l 513 861 q 481 742 513 796 q 396 656 450 688 q 278 625 342 625 l 278 625 z "},"™":{"ha":775,"x_min":21,"x_max":754,"o":"m 392 1049 q 415 1106 392 1082 q 474 1131 439 1131 q 532 1106 508 1131 q 556 1049 556 1082 l 556 807 q 561 795 556 800 q 574 790 567 790 q 585 796 581 790 q 590 807 590 801 l 590 1049 q 614 1106 590 1082 q 672 1131 638 1131 q 730 1106 706 1131 q 754 1049 754 1082 l 754 672 l 725 672 l 725 885 q 710 922 725 907 q 672 938 694 938 q 634 922 650 938 q 618 885 618 907 l 618 672 l 528 672 l 528 885 q 512 922 528 907 q 474 938 496 938 q 436 922 451 938 q 421 885 421 907 l 421 672 l 392 672 l 392 1049 m 243 667 q 159 700 192 667 q 126 796 126 733 l 126 819 l 21 819 l 21 885 l 88 885 q 126 933 126 885 l 126 1125 l 156 1125 l 156 901 q 167 888 156 889 q 183 897 179 886 l 249 1086 q 290 1128 260 1119 q 344 1116 319 1138 q 368 1047 368 1094 l 368 819 l 156 819 l 156 813 q 246 757 156 757 q 314 767 290 757 q 338 789 338 776 l 378 789 l 378 783 q 339 698 378 729 q 243 667 300 667 z "},"|":{"ha":153,"x_min":42,"x_max":111,"o":"m 111 1111 l 111 -199 l 42 -199 l 42 1111 l 111 1111 z "},"¢":{"ha":935,"x_min":42,"x_max":893,"o":"m 893 128 l 42 128 l 42 983 l 893 983 l 893 583 l 840 583 q 783 758 833 679 q 650 884 732 838 q 469 931 568 931 q 282 880 368 931 q 145 744 196 829 q 94 557 94 658 q 145 370 94 456 q 282 235 196 285 q 469 185 368 185 q 654 233 571 185 q 787 362 738 282 q 840 531 836 442 l 893 531 l 893 128 m 490 1125 l 490 -14 l 456 -14 l 456 1125 l 490 1125 z "},"$":{"ha":664,"x_min":29,"x_max":611,"o":"m 257 910 l 257 796 l 143 796 l 143 910 l 257 910 m 383 1024 l 383 910 l 257 910 l 257 1024 l 383 1024 m 143 796 l 143 619 l 29 619 l 29 796 l 143 796 m 257 619 l 257 506 l 143 506 l 143 619 l 257 619 m 143 506 l 143 329 l 29 329 l 29 506 l 143 506 m 257 329 l 257 215 l 143 215 l 143 329 l 257 329 m 383 215 l 383 101 l 257 101 l 257 215 l 383 215 m 360 506 l 360 403 l 257 403 l 257 506 l 360 506 m 383 215 l 383 329 l 497 329 l 497 215 l 383 215 m 497 329 l 497 506 l 611 506 l 611 329 l 497 329 m 383 506 l 383 619 l 497 619 l 497 506 l 383 506 m 497 619 l 497 796 l 611 796 l 611 619 l 497 619 m 383 796 l 383 910 l 497 910 l 497 796 l 383 796 m 281 619 l 281 722 l 383 722 l 383 619 l 281 619 m 331 1125 l 331 -14 l 311 -14 l 311 1125 l 331 1125 m 331 1125 l 331 -14 l 311 -14 l 311 1125 l 331 1125 z "},"€":{"ha":1274,"x_min":42,"x_max":1232,"o":"m 1232 0 l 125 0 l 125 1111 l 1232 1111 l 1232 592 l 1163 592 q 1088 819 1153 715 q 915 983 1022 922 q 681 1043 808 1043 q 437 978 549 1043 q 260 801 325 913 q 194 557 194 689 q 260 314 194 425 q 437 138 325 203 q 681 74 549 74 q 920 137 811 74 q 1093 303 1029 200 q 1163 522 1157 407 l 1232 522 l 1232 0 m 778 592 l 778 564 l 42 564 l 42 592 l 778 592 m 778 551 l 778 524 l 42 524 l 42 551 l 778 551 z "},"£":{"ha":1054,"x_min":42,"x_max":1013,"o":"m 165 850 q 213 866 199 850 q 226 919 226 882 l 226 1111 q 226 1111 226 1111 q 226 1111 226 1111 q 226 1111 226 1111 l 1013 1111 q 1013 1111 1013 1111 q 1013 1111 1013 1111 q 1013 1111 1013 1111 l 1013 896 q 990 810 1013 850 q 928 747 967 771 q 843 724 889 724 l 843 724 q 721 774 771 724 q 671 896 671 825 l 671 919 q 637 1004 671 969 q 553 1039 603 1039 l 553 1039 q 467 1004 503 1039 q 432 919 432 969 l 432 843 q 415 766 432 797 q 368 719 399 735 q 294 704 338 704 l 163 704 l 163 575 l 581 575 q 646 597 625 575 q 667 661 667 618 l 667 686 l 1013 686 l 1013 0 l 483 0 l 483 367 q 437 481 483 433 q 324 528 390 528 q 209 481 256 528 q 163 367 163 433 l 163 0 l 118 0 l 118 850 l 165 850 m 508 674 l 508 615 l 42 615 l 42 674 l 508 674 z "},"¥":{"ha":1653,"x_min":42,"x_max":1611,"o":"m 750 1111 l 750 1054 q 773 1000 750 1022 q 828 978 796 978 l 828 978 q 881 1000 858 978 q 903 1054 903 1022 l 903 1111 l 1611 1111 l 1611 818 q 1510 400 1611 560 q 1242 172 1408 240 q 865 103 1075 103 l 861 103 l 861 75 l 903 75 l 903 61 l 861 61 l 861 50 l 903 50 l 903 36 l 861 36 l 861 0 l 792 0 l 792 36 l 750 36 l 750 50 l 792 50 l 792 61 l 750 61 l 750 75 l 792 75 l 792 103 l 788 103 q 411 172 578 103 q 143 403 244 242 q 42 831 42 565 l 42 1111 l 750 1111 z "},"+":{"ha":682,"x_min":42,"x_max":640,"o":"m 375 694 l 375 96 l 306 96 l 306 694 l 375 694 m 640 361 l 42 361 l 42 431 l 640 431 l 640 361 z "},"−":{"ha":682,"x_min":42,"x_max":640,"o":"m 640 361 l 42 361 l 42 431 l 640 431 l 640 361 z "},"×":{"ha":557,"x_min":42,"x_max":515,"o":"m 515 582 l 92 160 l 42 208 l 465 632 l 515 582 m 467 160 l 43 582 l 93 632 l 515 208 l 467 160 z "},"÷":{"ha":654,"x_min":42,"x_max":613,"o":"m 613 361 l 42 361 l 42 431 l 613 431 l 613 361 m 328 500 q 287 517 304 500 q 269 558 269 535 q 287 599 269 582 q 328 615 304 615 q 368 599 351 615 q 385 558 385 582 q 368 517 385 535 q 328 500 351 500 m 328 176 q 287 194 304 176 q 269 235 269 211 q 287 275 269 258 q 328 292 304 292 q 368 275 351 292 q 385 235 385 258 q 368 194 385 211 q 328 176 351 176 z "},"=":{"ha":668,"x_min":42,"x_max":626,"o":"m 626 458 l 42 458 l 42 528 l 626 528 l 626 458 m 626 222 l 42 222 l 42 292 l 626 292 l 626 222 z "},"≠":{"ha":668,"x_min":42,"x_max":626,"o":"m 626 458 l 42 458 l 42 528 l 626 528 l 626 458 m 626 222 l 42 222 l 42 292 l 626 292 l 626 222 m 564 667 l 175 93 l 106 93 l 494 667 l 564 667 z "},"±":{"ha":682,"x_min":42,"x_max":640,"o":"m 376 736 l 376 193 l 307 193 l 307 736 l 376 736 m 640 431 l 42 431 l 42 500 l 640 500 l 640 431 m 640 49 l 42 49 l 42 118 l 640 118 l 640 49 z "},"%":{"ha":958,"x_min":42,"x_max":917,"o":"m 840 963 l 229 0 l 153 0 l 764 963 l 840 963 m 704 -14 q 597 15 646 -14 q 519 92 547 43 q 490 200 490 142 q 519 307 490 258 q 597 384 547 356 q 704 413 646 413 q 811 384 763 413 q 888 307 860 356 q 917 200 917 258 q 888 92 917 142 q 811 15 860 43 q 704 -14 763 -14 m 704 54 q 808 97 765 54 q 850 200 850 139 q 808 303 850 261 q 704 346 765 346 q 601 303 643 346 q 558 200 558 261 q 601 97 558 139 q 704 54 643 54 m 256 540 q 148 569 197 540 q 70 647 99 597 q 42 754 42 696 q 70 861 42 813 q 148 938 99 910 q 256 967 197 967 q 363 938 314 967 q 440 861 411 910 q 468 754 468 813 q 440 647 468 696 q 363 569 411 597 q 256 540 314 540 m 256 608 q 359 651 317 608 q 401 754 401 693 q 359 858 401 815 q 256 900 317 900 q 152 858 194 900 q 110 754 110 815 q 152 651 110 693 q 256 608 194 608 z "},"↑":{"ha":1186,"x_min":42,"x_max":1144,"o":"m 871 -278 q 871 -278 871 -278 q 871 -278 871 -278 l 314 -278 q 314 -278 314 -278 q 314 -278 314 -278 l 569 753 l 550 753 l 528 643 q 469 454 504 525 q 383 351 435 383 q 256 318 332 318 l 42 318 q 42 318 42 318 q 42 318 42 318 l 42 801 q 42 801 42 801 q 42 801 42 801 l 290 801 q 497 856 428 801 q 567 1040 567 910 l 567 1125 l 619 1125 l 619 1040 q 690 857 619 913 q 896 801 760 801 l 1144 801 q 1144 801 1144 801 q 1144 801 1144 801 l 1144 318 q 1144 318 1144 318 q 1144 318 1144 318 l 931 318 q 803 351 854 318 q 717 454 751 383 q 658 643 682 525 l 636 753 l 615 753 l 871 -278 z "},"↗":{"ha":1590,"x_min":42,"x_max":1549,"o":"m 454 -294 q 454 -294 454 -294 q 454 -294 454 -294 l 42 119 q 42 119 42 119 q 42 119 42 119 l 1108 806 l 1094 819 l 1001 757 q 826 665 900 690 q 692 652 751 639 q 578 719 632 665 l 428 871 q 428 871 428 871 q 428 871 428 871 l 769 1213 q 769 1213 769 1213 q 769 1213 769 1213 l 944 1038 q 1129 929 1042 940 q 1310 1010 1217 918 l 1369 1071 l 1407 1033 l 1346 974 q 1266 794 1256 882 q 1374 608 1276 706 l 1549 433 q 1549 433 1549 433 q 1549 433 1549 433 l 1207 92 q 1207 92 1207 92 q 1207 92 1207 92 l 1056 242 q 988 356 1001 296 q 1001 490 975 415 q 1093 665 1026 564 l 1156 758 l 1140 772 l 454 -294 z "},"→":{"ha":1694,"x_min":42,"x_max":1653,"o":"m 42 190 q 42 190 42 190 q 42 190 42 190 l 42 775 q 42 775 42 775 q 42 775 42 775 l 1281 506 l 1281 525 l 1171 547 q 982 606 1053 571 q 878 692 911 640 q 846 819 846 743 l 846 1033 q 846 1033 846 1033 q 846 1033 846 1033 l 1329 1033 q 1329 1033 1329 1033 q 1329 1033 1329 1033 l 1329 785 q 1383 578 1329 647 q 1568 508 1438 508 l 1653 508 l 1653 456 l 1568 456 q 1385 385 1440 456 q 1329 179 1329 315 l 1329 -69 q 1329 -69 1329 -69 q 1329 -69 1329 -69 l 846 -69 q 846 -69 846 -69 q 846 -69 846 -69 l 846 144 q 878 272 846 221 q 982 358 911 324 q 1171 417 1053 393 l 1281 439 l 1281 460 l 42 190 z "},"↘":{"ha":1590,"x_min":42,"x_max":1549,"o":"m 42 846 q 42 846 42 846 q 42 846 42 846 l 456 1258 q 456 1258 456 1258 q 456 1258 456 1258 l 1142 192 l 1156 206 l 1093 299 q 1001 474 1026 400 q 988 608 975 549 q 1056 722 1001 668 l 1207 872 q 1207 872 1207 872 q 1207 872 1207 872 l 1549 531 q 1549 531 1549 531 q 1549 531 1549 531 l 1374 356 q 1265 171 1276 258 q 1346 -10 1254 83 l 1407 -69 l 1369 -107 l 1310 -46 q 1130 34 1218 44 q 944 -74 1042 24 l 769 -249 q 769 -249 769 -249 q 769 -249 769 -249 l 428 93 q 428 93 428 93 q 428 93 428 93 l 578 244 q 692 312 632 299 q 826 299 751 325 q 1001 207 900 274 l 1094 144 l 1108 160 l 42 846 z "},"↓":{"ha":1186,"x_min":42,"x_max":1144,"o":"m 636 94 l 658 204 q 717 393 682 322 q 803 497 751 464 q 931 529 854 529 l 1144 529 q 1144 529 1144 529 q 1144 529 1144 529 l 1144 46 q 1144 46 1144 46 q 1144 46 1144 46 l 896 46 q 690 -10 760 46 q 619 -193 619 -65 l 619 -278 l 567 -278 l 567 -193 q 497 -8 567 -62 q 290 46 428 46 l 42 46 q 42 46 42 46 q 42 46 42 46 l 42 529 q 42 529 42 529 q 42 529 42 529 l 256 529 q 383 497 332 529 q 469 393 435 464 q 528 204 504 322 l 550 94 l 569 94 l 314 1125 q 314 1125 314 1125 q 314 1125 314 1125 l 871 1125 q 871 1125 871 1125 q 871 1125 871 1125 l 615 94 l 636 94 z "},"↙":{"ha":1590,"x_min":42,"x_max":1549,"o":"m 496 144 l 589 207 q 765 299 690 274 q 899 312 839 325 q 1013 244 958 299 l 1163 93 q 1163 93 1163 93 q 1163 93 1163 93 l 821 -249 q 821 -249 821 -249 q 821 -249 821 -249 l 646 -74 q 460 34 549 24 q 281 -46 372 44 l 221 -107 l 183 -69 l 244 -10 q 325 171 336 83 q 217 356 314 258 l 42 531 q 42 531 42 531 q 42 531 42 531 l 383 872 q 383 872 383 872 q 383 872 383 872 l 535 722 q 602 608 589 668 q 590 474 615 549 q 497 299 564 400 l 435 206 l 449 192 l 1135 1258 q 1135 1258 1135 1258 q 1135 1258 1135 1258 l 1549 846 q 1549 846 1549 846 q 1549 846 1549 846 l 482 160 l 496 144 z "},"←":{"ha":1694,"x_min":42,"x_max":1653,"o":"m 414 439 l 524 417 q 713 358 642 393 q 816 272 783 324 q 849 144 849 221 l 849 -69 q 849 -69 849 -69 q 849 -69 849 -69 l 365 -69 q 365 -69 365 -69 q 365 -69 365 -69 l 365 179 q 310 385 365 315 q 126 456 254 456 l 42 456 l 42 508 l 126 508 q 311 578 257 508 q 365 785 365 647 l 365 1033 q 365 1033 365 1033 q 365 1033 365 1033 l 849 1033 q 849 1033 849 1033 q 849 1033 849 1033 l 849 819 q 816 692 849 743 q 713 606 783 640 q 524 547 642 571 l 414 525 l 414 506 l 1653 775 q 1653 775 1653 775 q 1653 775 1653 775 l 1653 190 q 1653 190 1653 190 q 1653 190 1653 190 l 414 460 l 414 439 z "},"↖":{"ha":1590,"x_min":42,"x_max":1549,"o":"m 435 758 l 497 665 q 590 490 564 564 q 602 356 615 415 q 535 242 589 296 l 383 92 q 383 92 383 92 q 383 92 383 92 l 42 433 q 42 433 42 433 q 42 433 42 433 l 217 608 q 324 794 314 706 q 244 974 335 882 l 183 1033 l 221 1071 l 281 1010 q 461 929 374 918 q 646 1038 549 940 l 821 1213 q 821 1213 821 1213 q 821 1213 821 1213 l 1163 871 q 1163 871 1163 871 q 1163 871 1163 871 l 1013 719 q 899 652 958 665 q 765 665 839 639 q 589 757 690 690 l 496 819 l 482 806 l 1549 119 q 1549 119 1549 119 q 1549 119 1549 119 l 1136 -294 q 1136 -294 1136 -294 q 1136 -294 1136 -294 l 450 772 l 435 758 z "},"↔":{"ha":2339,"x_min":42,"x_max":2297,"o":"m 414 460 l 414 439 l 524 417 q 713 358 642 393 q 816 272 783 324 q 849 144 849 221 l 849 -69 q 849 -69 849 -69 q 849 -69 849 -69 l 365 -69 q 365 -69 365 -69 q 365 -69 365 -69 l 365 179 q 310 385 365 315 q 126 456 254 456 l 42 456 l 42 508 l 126 508 q 311 578 257 508 q 365 785 365 647 l 365 1033 q 365 1033 365 1033 q 365 1033 365 1033 l 849 1033 q 849 1033 849 1033 q 849 1033 849 1033 l 849 819 q 816 692 849 743 q 713 606 783 640 q 524 547 642 571 l 414 525 l 414 506 l 1925 506 l 1925 525 l 1815 547 q 1626 606 1697 571 q 1523 692 1556 640 q 1490 819 1490 743 l 1490 1033 q 1490 1033 1490 1033 q 1490 1033 1490 1033 l 1974 1033 q 1974 1033 1974 1033 q 1974 1033 1974 1033 l 1974 785 q 2028 578 1974 647 q 2213 508 2082 508 l 2297 508 l 2297 456 l 2213 456 q 2029 385 2085 456 q 1974 179 1974 315 l 1974 -69 q 1974 -69 1974 -69 q 1974 -69 1974 -69 l 1490 -69 q 1490 -69 1490 -69 q 1490 -69 1490 -69 l 1490 144 q 1523 272 1490 221 q 1626 358 1556 324 q 1815 417 1697 393 l 1925 439 l 1925 460 l 414 460 z "},"↕":{"ha":1186,"x_min":42,"x_max":1144,"o":"m 571 943 l 550 943 l 528 833 q 469 644 504 715 q 383 541 435 574 q 256 508 332 508 l 42 508 q 42 508 42 508 q 42 508 42 508 l 42 992 q 42 992 42 992 q 42 992 42 992 l 290 992 q 497 1047 426 992 q 567 1231 567 1103 l 567 1315 l 619 1315 l 619 1231 q 689 1046 619 1100 q 896 992 758 992 l 1144 992 q 1144 992 1144 992 q 1144 992 1144 992 l 1144 508 q 1144 508 1144 508 q 1144 508 1144 508 l 931 508 q 803 541 854 508 q 717 644 751 574 q 658 833 682 715 l 636 943 l 617 943 l 617 24 l 636 24 l 658 133 q 717 322 682 251 q 803 426 751 393 q 931 458 854 458 l 1144 458 q 1144 458 1144 458 q 1144 458 1144 458 l 1144 -25 q 1144 -25 1144 -25 q 1144 -25 1144 -25 l 896 -25 q 689 -79 758 -25 q 619 -264 619 -133 l 619 -349 l 567 -349 l 567 -264 q 497 -81 567 -136 q 290 -25 426 -25 l 42 -25 q 42 -25 42 -25 q 42 -25 42 -25 l 42 458 q 42 458 42 458 q 42 458 42 458 l 256 458 q 383 426 332 458 q 469 322 435 393 q 528 133 504 251 l 550 24 l 571 24 l 571 943 z "}}}
